# xmcd
#
# Track frame offsets:
#	150
#	22670
#	41292
#	62380
#	83160
#	99987
#	125480
#	140142
#	162952
#	164650
#	186307
#	202045
#
# Disc length: 2723 seconds
#
# Revision: 0
# Processed by: cddbd v1.4PL0 Copyright (c) Steve Scherf et al.
# Submitted via: EasyCDDAExtractor 4.6.0.1
#
DISCID=9c0aa10c
DTITLE=Flak
DYEAR=1998
DGENRE=
TTITLE0=Barco a soluçar
TTITLE1=A dama do lago
TTITLE2=Antono V
TTITLE3=Sei onde me vou perder
TTITLE4=Como se mais perto
TTITLE5=Ser ou não
TTITLE6=O relógio parado
TTITLE7=De azul em azul
TTITLE8=Jogando ao acaso
TTITLE9=O imenso adeus
TTITLE10=Vai de roda
TTITLE11=Hanói
EXTD=
EXTT0=
EXTT1=
EXTT2=
EXTT3=
EXTT4=
EXTT5=
EXTT6=
EXTT7=
EXTT8=
EXTT9=
EXTT10=
EXTT11=
PLAYORDER=
